<?xml version="1.0" encoding="iso-8859-1"?>
<!-- Generator: Adobe Illustrator 19.0.0, SVG Export Plug-In . SVG Version: 6.00 Build 0)  -->
<svg version="1.1" id="Layer_1" xmlns="http://www.w3.org/2000/svg" xmlns:xlink="http://www.w3.org/1999/xlink" x="0px" y="0px"
	 viewBox="0 0 502 502" style="enable-background:new 0 0 502 502;" xml:space="preserve">
<g>
	<g>
		<rect x="5" y="5" style="fill:#44678D;" width="492" height="492"/>
		<path d="M497,502H5c-2.762,0-5-2.239-5-5V5c0-2.761,2.238-5,5-5h492c2.762,0,5,2.239,5,5v492C502,499.761,499.762,502,497,502z
			 M10,492h482V10H10V492z"/>
	</g>
	<g>
		<path style="fill:#FFFFFF;" d="M401.43,248.406c-1.745,2.378-3.279,4.908-4.714,7.48c-5.108,9.241-4.754,14.418,2.699,22.114
			c11.871,12.245,24.581,23.701,36.078,36.278c8.349,9.151,16.083,19.082,22.704,29.531c8.371,13.221,3.2,25.671-12.441,27.891
			c-9.842,1.386-57.911,0.009-60.394,0c-12.925-0.058-24.253-4.545-33.373-13.321c-10.148-9.769-19.368-20.49-29.108-30.686
			c-2.936-3.073-6.069-6.02-9.446-8.587c-7.971-6.078-15.794-4.729-19.515,4.629c-3.185,8.039-5.931,29.145-6.063,30.948
			c-0.669,9.432-6.668,15.441-17.226,16.02c-30.49,1.656-60.031-1.745-87.553-16.488c-23.326-12.493-41.955-30.153-58.091-50.754
			c-25.629-32.714-45.871-68.675-64.358-105.696c-0.945-1.892-19.663-41.728-20.169-43.61c-1.671-6.299-0.111-12.319,5.214-14.391
			c3.316-1.293,65.038,0,66.066,0.053c9.851,0.532,16.568,4.685,20.716,14.912l0,0c11.793,29.119,26.732,56.573,46.415,81.217
			c2.609,3.279,5.899,6.194,9.367,8.572c5.066,3.474,9.842,2.255,11.898-3.538c2.177-6.077,4.179-18.396,4.295-24.78
			c0.327-16.678-0.047-27.606-0.943-44.264c-0.58-10.669-4.375-20.036-20.068-22.861c-4.845-0.874-5.293-4.866-2.182-8.846
			c6.483-8.286,15.514-9.604,25.303-10.126c15.871-0.858,31.796-0.158,47.69,0c6.467,0.058,12.983,0.58,19.356,1.972
			c8.313,1.808,12.767,7.643,14.133,15.756c0.711,4.191,1.076,8.492,0.976,12.731c-0.412,18.202-1.287,36.398-1.498,54.59
			c-0.084,7.143,0.433,14.46,1.961,21.418c2.14,9.689,8.741,12.124,15.488,5.124c8.57-8.898,16.125-18.903,23.215-29.072
			c12.889-18.486,22.509-38.781,30.795-59.704c4.286-10.796,7.565-13.142,19.177-13.168c21.829-0.053,43.658-0.069,65.487,0
			c3.874,0.016,7.923,0.385,11.576,1.544c5.93,1.893,8.373,6.747,6.894,12.867C458.167,169.167,401.43,248.406,401.43,248.406z"/>
		<path d="M426.174,377.318c-11.526,0-25.563-0.275-37.185-0.541c-1.993-0.046-3.293-0.076-3.646-0.078
			c-14.351-0.064-26.738-5.016-36.82-14.717c-6.626-6.378-12.915-13.213-18.996-19.822c-3.347-3.637-6.807-7.398-10.261-11.013
			c-3.124-3.269-6.021-5.905-8.855-8.059c-2.849-2.172-5.504-3.064-7.479-2.516c-2.204,0.611-3.59,3.062-4.364,5.011
			c-2.849,7.189-5.563,27.39-5.724,29.469c-0.866,12.214-9.067,19.937-21.938,20.643c-36.125,1.958-64.782-3.464-90.188-17.073
			c-21.881-11.721-41.398-28.755-59.666-52.079C98.753,278.08,78.739,245.22,56.157,199.998
			c-0.185-0.37-19.804-41.863-20.524-44.545c-2.468-9.304,0.841-17.475,8.23-20.349c5.083-1.982,67.539-0.312,68.135-0.281
			c12.237,0.66,20.44,6.556,25.093,18.026c12.591,31.088,27.535,57.248,45.689,79.976c2.161,2.717,5.024,5.332,8.287,7.569
			c1.429,0.98,2.457,1.159,2.905,1.013c0.387-0.126,0.972-0.744,1.453-2.101c2.037-5.687,3.905-17.504,4.009-23.199
			c0.322-16.509-0.045-27.311-0.938-43.905c-0.505-9.294-3.413-15.95-15.961-18.209c-5.114-0.923-7.017-4.047-7.695-5.827
			c-1.282-3.363-0.386-7.379,2.46-11.019c7.906-10.105,19.103-11.513,28.976-12.04c11.954-0.646,24.05-0.419,35.746-0.201
			c4.088,0.077,8.176,0.153,12.261,0.194c7.589,0.068,14.255,0.75,20.372,2.086c9.813,2.134,16.205,9.17,17.997,19.811
			c0.795,4.688,1.146,9.292,1.044,13.679c-0.17,7.5-0.422,15.116-0.666,22.481c-0.348,10.514-0.708,21.386-0.831,32.049
			c-0.088,7.484,0.532,14.309,1.845,20.287c0.817,3.7,2.188,5.004,2.798,5.176c0.539,0.149,2.031-0.194,4.207-2.45
			c7.182-7.457,14.188-16.235,22.713-28.461c11.065-15.871,20.677-34.519,30.248-58.685c5.077-12.788,10.195-16.297,23.815-16.327
			c25.31-0.062,46.128-0.062,65.514,0c5.096,0.021,9.37,0.603,13.072,1.778c8.22,2.625,12.243,9.979,10.258,18.738
			c-0.609,2.693-3.289,4.379-5.981,3.771c-2.693-0.61-4.381-3.289-3.771-5.982c1.099-4.851-1.314-6.288-3.54-6.999
			c-2.714-0.861-6.012-1.29-10.074-1.307c-19.363-0.061-40.162-0.061-65.455,0c-9.489,0.021-10.984,1.05-14.542,10.013
			c-9.862,24.9-19.821,44.195-31.341,60.718c-8.839,12.675-16.152,21.829-23.715,29.681c-6.016,6.238-11.431,5.894-14.122,5.136
			c-2.811-0.792-7.826-3.49-9.85-12.65c-1.477-6.726-2.176-14.313-2.079-22.555c0.125-10.771,0.486-21.697,0.837-32.263
			c0.242-7.34,0.494-14.929,0.662-22.382c0.089-3.753-0.217-7.716-0.906-11.782c-1.114-6.619-4.473-10.446-10.266-11.707
			c-5.442-1.188-11.439-1.795-18.338-1.857c-4.119-0.041-8.236-0.118-12.353-0.195c-11.518-0.216-23.427-0.439-35.022,0.188
			c-10.294,0.549-16.789,2.021-21.636,8.215c-0.267,0.342-0.46,0.643-0.599,0.894c15.232,2.831,23.053,11.816,23.903,27.461
			c0.906,16.845,1.279,27.82,0.95,44.633c-0.12,6.604-2.15,19.565-4.588,26.369c-1.479,4.167-4.244,7.102-7.78,8.251
			c-3.645,1.186-7.782,0.377-11.652-2.275c-4.072-2.792-7.687-6.106-10.452-9.583c-18.759-23.486-34.179-50.459-47.137-82.453
			c-3.214-7.925-7.952-11.343-16.351-11.796c-4.138-0.155-57.873-1.126-64.265-0.263c-2.644,1.28-2.727,5.117-1.956,8.164
			c1.399,3.634,18.75,40.615,19.852,42.82c22.27,44.599,41.953,76.935,63.82,104.848c17.396,22.209,35.882,38.377,56.516,49.43
			c23.723,12.708,50.71,17.762,84.921,15.903c7.795-0.427,12.004-4.256,12.51-11.381c0.102-1.378,2.845-23.454,6.402-32.435
			c2.923-7.351,7.588-10.016,10.987-10.958c5.063-1.403,10.819,0.087,16.208,4.195c3.253,2.472,6.535,5.453,10.029,9.108
			c3.519,3.684,7.012,7.479,10.39,11.15c5.979,6.5,12.164,13.22,18.571,19.388c8.167,7.858,18.236,11.87,29.928,11.922
			c0.369,0.001,1.736,0.032,3.833,0.08c31.744,0.727,50.531,0.717,55.841-0.031c5.636-0.8,9.639-3.18,11.265-6.702
			c1.696-3.673,0.862-8.49-2.351-13.563c-6.239-9.847-13.7-19.549-22.173-28.835c-6.676-7.302-13.94-14.392-20.966-21.248
			c-4.958-4.838-10.084-9.84-15.009-14.92c-8.804-9.091-9.748-16.683-3.484-28.014c1.783-3.199,3.387-5.741,5.057-8.018
			c1.635-2.228,4.764-2.708,6.989-1.075c2.227,1.633,2.708,4.762,1.075,6.989c-1.419,1.935-2.811,4.146-4.378,6.958
			c-4.159,7.525-3.838,10.253,1.923,16.201c4.826,4.978,9.902,9.932,14.812,14.722c7.126,6.954,14.494,14.145,21.365,21.661
			c8.868,9.719,16.686,19.888,23.237,30.228c5.091,8.042,6.149,16.247,2.98,23.107c-3.099,6.709-9.826,11.116-18.943,12.41
			C442.954,377.144,435.361,377.318,426.174,377.318z M430.096,212.534c-1.01,0.039-2.04-0.232-2.941-0.841
			c-2.254-1.522-2.846-4.583-1.323-6.836c4.41-6.528,8.241-12.289,11.714-17.612c1.486-2.278,4.537-2.92,6.814-1.434
			c2.277,1.485,2.919,4.536,1.434,6.814c-3.502,5.368-7.362,11.173-11.803,17.745C433.077,211.721,431.61,212.476,430.096,212.534z"
			/>
	</g>
	<g>
		<path d="M448,455h-43c-2.762,0-5-2.239-5-5s2.238-5,5-5h43c2.762,0,5,2.239,5,5S450.762,455,448,455z"/>
	</g>
	<g>
		<path d="M355,455H55c-2.762,0-5-2.239-5-5s2.238-5,5-5h300c2.762,0,5,2.239,5,5S357.762,455,355,455z"/>
	</g>
</g>
<g>
</g>
<g>
</g>
<g>
</g>
<g>
</g>
<g>
</g>
<g>
</g>
<g>
</g>
<g>
</g>
<g>
</g>
<g>
</g>
<g>
</g>
<g>
</g>
<g>
</g>
<g>
</g>
<g>
</g>
</svg>
